<svg width="17" height="17" viewBox="0 0 17 17" fill="none" xmlns="http://www.w3.org/2000/svg">
<path d="M11.0365 8.49994C11.0365 9.90244 9.90318 11.0358 8.50068 11.0358C7.09818 11.0358 5.96484 9.90244 5.96484 8.49994C5.96484 7.09744 7.09818 5.96411 8.50068 5.96411C9.90318 5.96411 11.0365 7.09744 11.0365 8.49994Z" stroke="white" stroke-linecap="round" stroke-linejoin="round"/>
<path d="M8.4994 14.3579C10.9998 14.3579 13.3302 12.8846 14.9523 10.3346C15.5898 9.33584 15.5898 7.65709 14.9523 6.65834C13.3302 4.10834 10.9998 2.63501 8.4994 2.63501C5.99898 2.63501 3.66857 4.10834 2.04648 6.65834C1.40898 7.65709 1.40898 9.33584 2.04648 10.3346C3.66857 12.8846 5.99898 14.3579 8.4994 14.3579Z" stroke="white" stroke-linecap="round" stroke-linejoin="round"/>
</svg>
