<svg width="17" height="17" viewBox="0 0 17 17" fill="none" xmlns="http://www.w3.org/2000/svg">
<path d="M4.25 7.08329V5.66663C4.25 3.32204 4.95833 1.41663 8.5 1.41663C12.0417 1.41663 12.75 3.32204 12.75 5.66663V7.08329" stroke="white" stroke-linecap="round" stroke-linejoin="round"/>
<path d="M8.49935 13.1042C9.47735 13.1042 10.2702 12.3113 10.2702 11.3333C10.2702 10.3553 9.47735 9.5625 8.49935 9.5625C7.52134 9.5625 6.72852 10.3553 6.72852 11.3333C6.72852 12.3113 7.52134 13.1042 8.49935 13.1042Z" stroke="white" stroke-linecap="round" stroke-linejoin="round"/>
<path d="M12.041 15.5834H4.95768C2.12435 15.5834 1.41602 14.875 1.41602 12.0417V10.625C1.41602 7.79171 2.12435 7.08337 4.95768 7.08337H12.041C14.8743 7.08337 15.5827 7.79171 15.5827 10.625V12.0417C15.5827 14.875 14.8743 15.5834 12.041 15.5834Z" stroke="white" stroke-linecap="round" stroke-linejoin="round"/>
</svg>
