<svg width="17" height="17" viewBox="0 0 17 17" fill="none" xmlns="http://www.w3.org/2000/svg">
<path d="M12.041 7.08341H13.4577C14.8743 7.08341 15.5827 6.37508 15.5827 4.95841V3.54175C15.5827 2.12508 14.8743 1.41675 13.4577 1.41675H12.041C10.6243 1.41675 9.91602 2.12508 9.91602 3.54175V4.95841C9.91602 6.37508 10.6243 7.08341 12.041 7.08341Z" stroke="white" stroke-miterlimit="10" stroke-linecap="round" stroke-linejoin="round"/>
<path d="M3.54102 15.5834H4.95768C6.37435 15.5834 7.08268 14.8751 7.08268 13.4584V12.0417C7.08268 10.6251 6.37435 9.91675 4.95768 9.91675H3.54102C2.12435 9.91675 1.41602 10.6251 1.41602 12.0417V13.4584C1.41602 14.8751 2.12435 15.5834 3.54102 15.5834Z" stroke="white" stroke-miterlimit="10" stroke-linecap="round" stroke-linejoin="round"/>
<path d="M4.24935 7.08341C5.81416 7.08341 7.08268 5.81489 7.08268 4.25008C7.08268 2.68527 5.81416 1.41675 4.24935 1.41675C2.68454 1.41675 1.41602 2.68527 1.41602 4.25008C1.41602 5.81489 2.68454 7.08341 4.24935 7.08341Z" stroke="white" stroke-miterlimit="10" stroke-linecap="round" stroke-linejoin="round"/>
<path d="M12.7493 15.5834C14.3142 15.5834 15.5827 14.3149 15.5827 12.7501C15.5827 11.1853 14.3142 9.91675 12.7493 9.91675C11.1845 9.91675 9.91602 11.1853 9.91602 12.7501C9.91602 14.3149 11.1845 15.5834 12.7493 15.5834Z" stroke="white" stroke-miterlimit="10" stroke-linecap="round" stroke-linejoin="round"/>
</svg>
