<svg width="25" height="25" viewBox="0 0 25 25" fill="none" xmlns="http://www.w3.org/2000/svg">
<g id="vuesax/linear/category-2">
<g id="category-2">
<path id="Vector" d="M17.708 10.4167H19.7913C21.8747 10.4167 22.9163 9.37504 22.9163 7.29171V5.20837C22.9163 3.12504 21.8747 2.08337 19.7913 2.08337H17.708C15.6247 2.08337 14.583 3.12504 14.583 5.20837V7.29171C14.583 9.37504 15.6247 10.4167 17.708 10.4167Z" stroke="white" stroke-width="1.5" stroke-miterlimit="10" stroke-linecap="round" stroke-linejoin="round"/>
<path id="Vector_2" d="M5.20801 22.9167H7.29134C9.37467 22.9167 10.4163 21.875 10.4163 19.7917V17.7084C10.4163 15.625 9.37467 14.5834 7.29134 14.5834H5.20801C3.12467 14.5834 2.08301 15.625 2.08301 17.7084V19.7917C2.08301 21.875 3.12467 22.9167 5.20801 22.9167Z" stroke="white" stroke-width="1.5" stroke-miterlimit="10" stroke-linecap="round" stroke-linejoin="round"/>
<path id="Vector_3" d="M6.24967 10.4167C8.55086 10.4167 10.4163 8.55123 10.4163 6.25004C10.4163 3.94885 8.55086 2.08337 6.24967 2.08337C3.94849 2.08337 2.08301 3.94885 2.08301 6.25004C2.08301 8.55123 3.94849 10.4167 6.24967 10.4167Z" stroke="white" stroke-width="1.5" stroke-miterlimit="10" stroke-linecap="round" stroke-linejoin="round"/>
<path id="Vector_4" d="M18.7497 22.9167C21.0509 22.9167 22.9163 21.0512 22.9163 18.75C22.9163 16.4489 21.0509 14.5834 18.7497 14.5834C16.4485 14.5834 14.583 16.4489 14.583 18.75C14.583 21.0512 16.4485 22.9167 18.7497 22.9167Z" stroke="white" stroke-width="1.5" stroke-miterlimit="10" stroke-linecap="round" stroke-linejoin="round"/>
</g>
</g>
</svg>
