<svg width="284" height="41" viewBox="0 0 284 41" fill="none" xmlns="http://www.w3.org/2000/svg">
<circle cx="263.5" cy="20.5" r="20" stroke="#3F445F"/>
<path d="M258.285 24.3V22.158L263.847 14.4H266.997V22.14H268.743V24.3H266.997V27H264.459V24.3H258.285ZM264.459 16.974L260.769 22.14H264.459V16.974Z" fill="white"/>
<line x1="208" y1="20.5" x2="238" y2="20.5" stroke="#3F445F"/>
<circle cx="182.5" cy="20.5" r="20" stroke="#3F445F"/>
<path d="M184.751 20.448C186.101 20.718 187.199 21.6 187.199 23.436C187.199 25.614 185.327 27.108 182.357 27.108C179.387 27.108 177.497 25.596 177.497 22.896H180.071C180.107 24.318 181.115 25.074 182.483 25.074C183.653 25.074 184.571 24.408 184.571 23.274C184.571 22.284 183.833 21.654 182.375 21.654H181.133V19.584H182.231C183.617 19.584 184.319 18.882 184.319 17.892C184.319 16.866 183.455 16.326 182.375 16.326C181.151 16.326 180.287 17.082 180.251 18.252H177.713C177.749 15.894 179.657 14.292 182.411 14.292C185.255 14.292 186.947 15.624 186.947 17.694C186.947 19.224 185.993 20.124 184.751 20.448Z" fill="white"/>
<line x1="127" y1="20.5" x2="157" y2="20.5" stroke="#3F445F"/>
<circle cx="101.5" cy="20.5" r="20" fill="#3F445F" stroke="#3F445F"/>
<path d="M94 21L98.9931 26L109 16" stroke="white" stroke-width="1.5" stroke-linecap="round" stroke-linejoin="round"/>
<line x1="46" y1="20.5" x2="76" y2="20.5" stroke="#3F445F"/>
<circle cx="20.5" cy="20.5" r="20" fill="#3F445F" stroke="#3F445F"/>
<path d="M13 21L17.9931 26L28 16" stroke="white" stroke-width="1.5" stroke-linecap="round" stroke-linejoin="round"/>
</svg>
