<svg width="41" height="41" viewBox="0 0 41 41" fill="none" xmlns="http://www.w3.org/2000/svg">
<circle cx="20.5" cy="20.5" r="20" stroke="#7D86B6"/>
<path d="M14 19C12.9 19 12 19.9 12 21C12 22.1 12.9 23 14 23C15.1 23 16 22.1 16 21C16 19.9 15.1 19 14 19Z" stroke="white"/>
<path d="M28 19C26.9 19 26 19.9 26 21C26 22.1 26.9 23 28 23C29.1 23 30 22.1 30 21C30 19.9 29.1 19 28 19Z" stroke="white"/>
<path d="M21 19C19.9 19 19 19.9 19 21C19 22.1 19.9 23 21 23C22.1 23 23 22.1 23 21C23 19.9 22.1 19 21 19Z" stroke="white"/>
</svg>
