<svg width="32" height="32" viewBox="0 0 32 32" fill="none" xmlns="http://www.w3.org/2000/svg">
<g id="ico">
<g id="Group">
<path id="Vector" d="M8.17701 28C6.60634 28 5.33301 26.6933 5.33301 25.08V13.344C5.33301 12.4573 5.72634 11.6173 6.39967 11.064L14.2223 4.64C14.7222 4.22611 15.3507 3.99963 15.9997 3.99963C16.6486 3.99963 17.2772 4.22611 17.777 4.64L25.5983 11.064C26.273 11.6173 26.6663 12.4573 26.6663 13.344V25.08C26.6663 26.6933 25.393 28 23.8223 28H8.17701Z" stroke="white" stroke-width="1.5" stroke-linecap="round" stroke-linejoin="round"/>
<path id="Vector_2" d="M12.666 28V20.6667C12.666 19.9594 12.947 19.2811 13.4471 18.781C13.9472 18.281 14.6254 18 15.3327 18H16.666C17.3733 18 18.0515 18.281 18.5516 18.781C19.0517 19.2811 19.3327 19.9594 19.3327 20.6667V28" stroke="white" stroke-width="1.5" stroke-linecap="round" stroke-linejoin="round"/>
</g>
</g>
</svg>
