<svg width="75" height="45" viewBox="0 0 75 45" fill="none" xmlns="http://www.w3.org/2000/svg">
<g id="But.: &#208;&#146;&#208;&#190;&#208;&#185;&#209;&#130;&#208;&#184; Instagram">
<rect id="Rectangle 42" width="75" height="45" rx="15" fill="#595F7B"/>
<path id="Vector" d="M32.25 10H42.75C46.75 10 50 13.25 50 17.25V27.75C50 29.6728 49.2362 31.5169 47.8765 32.8765C46.5169 34.2362 44.6728 35 42.75 35H32.25C28.25 35 25 31.75 25 27.75V17.25C25 15.3272 25.7638 13.4831 27.1235 12.1235C28.4831 10.7638 30.3272 10 32.25 10ZM32 12.5C30.8065 12.5 29.6619 12.9741 28.818 13.818C27.9741 14.6619 27.5 15.8065 27.5 17V28C27.5 30.4875 29.5125 32.5 32 32.5H43C44.1935 32.5 45.3381 32.0259 46.182 31.182C47.0259 30.3381 47.5 29.1935 47.5 28V17C47.5 14.5125 45.4875 12.5 43 12.5H32ZM44.0625 14.375C44.4769 14.375 44.8743 14.5396 45.1674 14.8326C45.4604 15.1257 45.625 15.5231 45.625 15.9375C45.625 16.3519 45.4604 16.7493 45.1674 17.0424C44.8743 17.3354 44.4769 17.5 44.0625 17.5C43.6481 17.5 43.2507 17.3354 42.9576 17.0424C42.6646 16.7493 42.5 16.3519 42.5 15.9375C42.5 15.5231 42.6646 15.1257 42.9576 14.8326C43.2507 14.5396 43.6481 14.375 44.0625 14.375ZM37.5 16.25C39.1576 16.25 40.7473 16.9085 41.9194 18.0806C43.0915 19.2527 43.75 20.8424 43.75 22.5C43.75 24.1576 43.0915 25.7473 41.9194 26.9194C40.7473 28.0915 39.1576 28.75 37.5 28.75C35.8424 28.75 34.2527 28.0915 33.0806 26.9194C31.9085 25.7473 31.25 24.1576 31.25 22.5C31.25 20.8424 31.9085 19.2527 33.0806 18.0806C34.2527 16.9085 35.8424 16.25 37.5 16.25ZM37.5 18.75C36.5054 18.75 35.5516 19.1451 34.8483 19.8483C34.1451 20.5516 33.75 21.5054 33.75 22.5C33.75 23.4946 34.1451 24.4484 34.8483 25.1517C35.5516 25.8549 36.5054 26.25 37.5 26.25C38.4946 26.25 39.4484 25.8549 40.1517 25.1517C40.8549 24.4484 41.25 23.4946 41.25 22.5C41.25 21.5054 40.8549 20.5516 40.1517 19.8483C39.4484 19.1451 38.4946 18.75 37.5 18.75Z" fill="white"/>
</g>
</svg>
