<svg width="25" height="25" viewBox="0 0 25 25" fill="none" xmlns="http://www.w3.org/2000/svg">
<g id="vuesax/linear/global">
<g id="global">
<path id="Vector" d="M12.4997 22.9167C18.2526 22.9167 22.9163 18.253 22.9163 12.5C22.9163 6.74707 18.2526 2.08337 12.4997 2.08337C6.74671 2.08337 2.08301 6.74707 2.08301 12.5C2.08301 18.253 6.74671 22.9167 12.4997 22.9167Z" stroke="white" stroke-width="1.5" stroke-linecap="round" stroke-linejoin="round"/>
<path id="Vector_2" d="M8.33333 3.125H9.375C7.34375 9.20833 7.34375 15.7917 9.375 21.875H8.33333" stroke="white" stroke-width="1.5" stroke-linecap="round" stroke-linejoin="round"/>
<path id="Vector_3" d="M15.625 3.125C17.6562 9.20833 17.6562 15.7917 15.625 21.875" stroke="white" stroke-width="1.5" stroke-linecap="round" stroke-linejoin="round"/>
<path id="Vector_4" d="M3.125 16.6667V15.625C9.20833 17.6562 15.7917 17.6562 21.875 15.625V16.6667" stroke="white" stroke-width="1.5" stroke-linecap="round" stroke-linejoin="round"/>
<path id="Vector_5" d="M3.125 9.375C9.20833 7.34375 15.7917 7.34375 21.875 9.375" stroke="white" stroke-width="1.5" stroke-linecap="round" stroke-linejoin="round"/>
</g>
</g>
</svg>
