<svg width="25" height="25" viewBox="0 0 25 25" fill="none" xmlns="http://www.w3.org/2000/svg">
<g id="vuesax/linear/pause">
<g id="pause">
<path id="Vector" d="M11.0937 19.9062V5.09375C11.0937 3.6875 10.5 3.125 9 3.125H5.21875C3.71875 3.125 3.125 3.6875 3.125 5.09375V19.9062C3.125 21.3125 3.71875 21.875 5.21875 21.875H9C10.5 21.875 11.0937 21.3125 11.0937 19.9062Z" stroke="white" stroke-width="1.5" stroke-linecap="round" stroke-linejoin="round"/>
<path id="Vector_2" d="M21.875 19.9062V5.09375C21.875 3.6875 21.2812 3.125 19.7812 3.125H16C14.5104 3.125 13.9062 3.6875 13.9062 5.09375V19.9062C13.9062 21.3125 14.5 21.875 16 21.875H19.7812C21.2812 21.875 21.875 21.3125 21.875 19.9062Z" stroke="white" stroke-width="1.5" stroke-linecap="round" stroke-linejoin="round"/>
</g>
</g>
</svg>
