<svg width="30" height="30" viewBox="0 0 30 30" fill="none" xmlns="http://www.w3.org/2000/svg">
<g id="vuesax/linear/music">
<g id="music">
<path id="Vector" d="M7.8502 27.5C10.0041 27.5 11.7502 25.7539 11.7502 23.5999C11.7502 21.446 10.0041 19.7 7.8502 19.7C5.69628 19.7 3.9502 21.446 3.9502 23.5999C3.9502 25.7539 5.69628 27.5 7.8502 27.5Z" stroke="white" stroke-width="1.5" stroke-linecap="round" stroke-linejoin="round"/>
<path id="Vector_2" d="M26.05 20.9999V5.74993C26.05 2.49993 24.0125 2.04993 21.95 2.61243L14.15 4.73743C12.725 5.12493 11.75 6.24993 11.75 7.87493V10.5874V12.4124V23.5874" stroke="white" stroke-width="1.5" stroke-linecap="round" stroke-linejoin="round"/>
<path id="Vector_3" d="M22.15 24.9C24.3039 24.9 26.05 23.1539 26.05 21C26.05 18.8461 24.3039 17.1 22.15 17.1C19.9961 17.1 18.25 18.8461 18.25 21C18.25 23.1539 19.9961 24.9 22.15 24.9Z" stroke="white" stroke-width="1.5" stroke-linecap="round" stroke-linejoin="round"/>
<path id="Vector_4" d="M11.75 11.9L26.05 8" stroke="white" stroke-width="1.5" stroke-linecap="round" stroke-linejoin="round"/>
</g>
</g>
</svg>
