<svg width="30" height="30" viewBox="0 0 30 30" fill="none" xmlns="http://www.w3.org/2000/svg">
<g id="vuesax/linear/crown">
<g id="crown">
<path id="Vector" d="M20.875 23.7249H9.125C8.6 23.7249 8.0125 23.3125 7.8375 22.8125L2.6625 8.33745C1.925 6.26245 2.7875 5.62495 4.5625 6.89995L9.4375 10.3875C10.25 10.95 11.175 10.6625 11.525 9.74995L13.725 3.88745C14.425 2.01245 15.5875 2.01245 16.2875 3.88745L18.4875 9.74995C18.8375 10.6625 19.7625 10.95 20.5625 10.3875L25.1375 7.12495C27.0875 5.72495 28.025 6.43745 27.225 8.69995L22.175 22.8375C21.9875 23.3125 21.4 23.7249 20.875 23.7249Z" stroke="white" stroke-width="1.5" stroke-linecap="round" stroke-linejoin="round"/>
<path id="Vector_2" d="M8.125 27.5H21.875" stroke="white" stroke-width="1.5" stroke-linecap="round" stroke-linejoin="round"/>
</g>
</g>
</svg>
