<svg width="75" height="45" viewBox="0 0 75 45" fill="none" xmlns="http://www.w3.org/2000/svg">
<g id="But.: &#208;&#146;&#208;&#190;&#208;&#185;&#209;&#130;&#208;&#184; VK">
<rect id="Rectangle 43" width="75" height="45" rx="15" fill="#595F7B"/>
<path id="Vector" d="M48.9942 30.0614H46.2581C45.2229 30.0614 44.911 29.2675 43.0553 27.5093C41.4336 26.0293 40.7486 25.8453 40.3384 25.8453C39.771 25.8453 39.6163 25.993 39.6163 26.7324V29.063C39.6163 29.6934 39.4004 30.0625 37.6611 30.0625C35.9737 29.9552 34.3373 29.4698 32.8869 28.6464C31.4364 27.8229 30.2133 26.685 29.3183 25.3263C27.1932 22.8219 25.7146 19.8826 25 16.7421C25 16.3536 25.1559 16.0015 25.938 16.0015H28.673C29.3759 16.0015 29.629 16.298 29.9049 16.9829C31.2328 20.6832 33.4987 23.902 34.4187 23.902C34.7714 23.902 34.9249 23.7544 34.9249 22.9219V19.1102C34.8086 17.3713 33.8333 17.2248 33.8333 16.5956C33.8457 16.4295 33.9259 16.2746 34.0569 16.1637C34.1879 16.0528 34.3595 15.9946 34.5351 16.0015H38.8342C39.422 16.0015 39.6163 16.2787 39.6163 16.9442V22.0893C39.6163 22.6447 39.8682 22.8287 40.0457 22.8287C40.3984 22.8287 40.6695 22.6447 41.316 22.0337C42.7019 20.4333 43.8342 18.6504 44.6771 16.7409C44.7634 16.5117 44.9265 16.3154 45.1416 16.1821C45.3566 16.0489 45.6118 15.9858 45.8682 16.0027H48.6044C49.4249 16.0027 49.5988 16.3911 49.4249 16.9454C48.4297 19.0561 47.1983 21.0597 45.7519 22.9219C45.4568 23.3478 45.3393 23.5692 45.7519 24.069C46.023 24.4574 46.9826 25.2161 47.6268 25.9373C48.5648 26.8233 49.3433 27.8477 49.9323 28.9699C50.1674 29.6922 49.7751 30.0614 48.9942 30.0614Z" fill="white"/>
</g>
</svg>
