<svg width="25" height="25" viewBox="0 0 25 25" fill="none" xmlns="http://www.w3.org/2000/svg">
<path d="M2.08301 10.4167V14.5833C2.08301 16.6667 3.12467 17.7083 5.20801 17.7083H6.69759C7.08301 17.7083 7.46842 17.8229 7.80176 18.0208L10.8434 19.9271C13.4684 21.5729 15.6247 20.375 15.6247 17.2813V7.71875C15.6247 4.61458 13.4684 3.42708 10.8434 5.07292L7.80176 6.97917C7.46842 7.17708 7.08301 7.29167 6.69759 7.29167H5.20801C3.12467 7.29167 2.08301 8.33333 2.08301 10.4167Z" stroke="white" stroke-width="1.5"/>
<path d="M18.75 8.33333C20.6042 10.8021 20.6042 14.1979 18.75 16.6667" stroke="white" stroke-width="1.5" stroke-linecap="round" stroke-linejoin="round"/>
<path d="M20.6562 5.72917C23.6667 9.73959 23.6667 15.2604 20.6562 19.2708" stroke="white" stroke-width="1.5" stroke-linecap="round" stroke-linejoin="round"/>
</svg>
